<mxfile host="app.diagrams.net" modified="2024-02-28T13:22:04.048Z" agent="Mozilla/5.0 (Macintosh; Intel Mac OS X 10_15_7) AppleWebKit/537.36 (KHTML, like Gecko) Chrome/121.0.0.0 Safari/537.36" etag="jxORXwvIfEbZ29g6kcr_" version="21.3.2" type="device">
  <diagram id="C5RBs43oDa-KdzZeNtuy" name="Page-1">
    <mxGraphModel dx="901" dy="483" grid="1" gridSize="10" guides="1" tooltips="1" connect="1" arrows="1" fold="1" page="1" pageScale="1" pageWidth="827" pageHeight="1169" math="0" shadow="0">
      <root>
        <mxCell id="WIyWlLk6GJQsqaUBKTNV-0" />
        <mxCell id="WIyWlLk6GJQsqaUBKTNV-1" parent="WIyWlLk6GJQsqaUBKTNV-0" />
        <mxCell id="ut_9dFhyEK4qxXcFYw3r-1" style="edgeStyle=orthogonalEdgeStyle;rounded=0;orthogonalLoop=1;jettySize=auto;html=1;exitX=1;exitY=0.5;exitDx=0;exitDy=0;" edge="1" parent="WIyWlLk6GJQsqaUBKTNV-1" source="WIyWlLk6GJQsqaUBKTNV-3" target="ut_9dFhyEK4qxXcFYw3r-0">
          <mxGeometry relative="1" as="geometry" />
        </mxCell>
        <mxCell id="WIyWlLk6GJQsqaUBKTNV-3" value="User" style="rounded=1;whiteSpace=wrap;html=1;fontSize=12;glass=0;strokeWidth=1;shadow=0;" parent="WIyWlLk6GJQsqaUBKTNV-1" vertex="1">
          <mxGeometry x="49" y="400" width="90" height="40" as="geometry" />
        </mxCell>
        <mxCell id="ut_9dFhyEK4qxXcFYw3r-3" style="edgeStyle=orthogonalEdgeStyle;rounded=0;orthogonalLoop=1;jettySize=auto;html=1;entryX=0;entryY=0.5;entryDx=0;entryDy=0;" edge="1" parent="WIyWlLk6GJQsqaUBKTNV-1" source="ut_9dFhyEK4qxXcFYw3r-0" target="ut_9dFhyEK4qxXcFYw3r-2">
          <mxGeometry relative="1" as="geometry" />
        </mxCell>
        <mxCell id="ut_9dFhyEK4qxXcFYw3r-0" value="Processing" style="rounded=1;whiteSpace=wrap;html=1;" vertex="1" parent="WIyWlLk6GJQsqaUBKTNV-1">
          <mxGeometry x="169" y="400" width="70" height="40" as="geometry" />
        </mxCell>
        <mxCell id="ut_9dFhyEK4qxXcFYw3r-6" style="edgeStyle=orthogonalEdgeStyle;rounded=0;orthogonalLoop=1;jettySize=auto;html=1;exitX=1;exitY=0;exitDx=0;exitDy=0;entryX=1;entryY=0;entryDx=0;entryDy=0;" edge="1" parent="WIyWlLk6GJQsqaUBKTNV-1" source="ut_9dFhyEK4qxXcFYw3r-2" target="ut_9dFhyEK4qxXcFYw3r-2">
          <mxGeometry relative="1" as="geometry" />
        </mxCell>
        <mxCell id="ut_9dFhyEK4qxXcFYw3r-7" style="edgeStyle=orthogonalEdgeStyle;rounded=0;orthogonalLoop=1;jettySize=auto;html=1;exitX=1;exitY=0.25;exitDx=0;exitDy=0;startArrow=classic;startFill=1;" edge="1" parent="WIyWlLk6GJQsqaUBKTNV-1" source="ut_9dFhyEK4qxXcFYw3r-2" target="ut_9dFhyEK4qxXcFYw3r-4">
          <mxGeometry relative="1" as="geometry" />
        </mxCell>
        <mxCell id="ut_9dFhyEK4qxXcFYw3r-8" value="Retrieve&amp;nbsp; Knowledge" style="edgeLabel;html=1;align=center;verticalAlign=middle;resizable=0;points=[];" vertex="1" connectable="0" parent="ut_9dFhyEK4qxXcFYw3r-7">
          <mxGeometry x="0.1466" y="-1" relative="1" as="geometry">
            <mxPoint as="offset" />
          </mxGeometry>
        </mxCell>
        <mxCell id="ut_9dFhyEK4qxXcFYw3r-9" style="edgeStyle=orthogonalEdgeStyle;rounded=0;orthogonalLoop=1;jettySize=auto;html=1;exitX=1;exitY=0.5;exitDx=0;exitDy=0;" edge="1" parent="WIyWlLk6GJQsqaUBKTNV-1" source="ut_9dFhyEK4qxXcFYw3r-2" target="ut_9dFhyEK4qxXcFYw3r-10">
          <mxGeometry relative="1" as="geometry">
            <mxPoint x="419" y="419.75862068965523" as="targetPoint" />
          </mxGeometry>
        </mxCell>
        <mxCell id="ut_9dFhyEK4qxXcFYw3r-2" value="Embedding" style="rounded=1;whiteSpace=wrap;html=1;" vertex="1" parent="WIyWlLk6GJQsqaUBKTNV-1">
          <mxGeometry x="269" y="400" width="90" height="40" as="geometry" />
        </mxCell>
        <mxCell id="ut_9dFhyEK4qxXcFYw3r-4" value="Knowledge DB" style="shape=cylinder3;whiteSpace=wrap;html=1;boundedLbl=1;backgroundOutline=1;size=15;" vertex="1" parent="WIyWlLk6GJQsqaUBKTNV-1">
          <mxGeometry x="379" y="180" width="70" height="80" as="geometry" />
        </mxCell>
        <mxCell id="ut_9dFhyEK4qxXcFYw3r-14" style="edgeStyle=orthogonalEdgeStyle;rounded=0;orthogonalLoop=1;jettySize=auto;html=1;entryX=0;entryY=0.5;entryDx=0;entryDy=0;" edge="1" parent="WIyWlLk6GJQsqaUBKTNV-1" source="ut_9dFhyEK4qxXcFYw3r-10" target="ut_9dFhyEK4qxXcFYw3r-13">
          <mxGeometry relative="1" as="geometry" />
        </mxCell>
        <mxCell id="ut_9dFhyEK4qxXcFYw3r-10" value="Boilerplate Prompt" style="rounded=1;whiteSpace=wrap;html=1;" vertex="1" parent="WIyWlLk6GJQsqaUBKTNV-1">
          <mxGeometry x="479" y="400" width="120" height="40" as="geometry" />
        </mxCell>
        <mxCell id="ut_9dFhyEK4qxXcFYw3r-12" style="edgeStyle=orthogonalEdgeStyle;rounded=0;orthogonalLoop=1;jettySize=auto;html=1;entryX=0.5;entryY=0;entryDx=0;entryDy=0;" edge="1" parent="WIyWlLk6GJQsqaUBKTNV-1" source="ut_9dFhyEK4qxXcFYw3r-11" target="ut_9dFhyEK4qxXcFYw3r-10">
          <mxGeometry relative="1" as="geometry" />
        </mxCell>
        <mxCell id="ut_9dFhyEK4qxXcFYw3r-11" value="System Prompt" style="rounded=1;whiteSpace=wrap;html=1;" vertex="1" parent="WIyWlLk6GJQsqaUBKTNV-1">
          <mxGeometry x="479" y="320" width="120" height="30" as="geometry" />
        </mxCell>
        <mxCell id="ut_9dFhyEK4qxXcFYw3r-17" style="edgeStyle=orthogonalEdgeStyle;rounded=0;orthogonalLoop=1;jettySize=auto;html=1;exitX=0.5;exitY=1;exitDx=0;exitDy=0;entryX=0.5;entryY=0;entryDx=0;entryDy=0;" edge="1" parent="WIyWlLk6GJQsqaUBKTNV-1" source="ut_9dFhyEK4qxXcFYw3r-13" target="ut_9dFhyEK4qxXcFYw3r-16">
          <mxGeometry relative="1" as="geometry" />
        </mxCell>
        <mxCell id="ut_9dFhyEK4qxXcFYw3r-13" value="LLM" style="rounded=1;whiteSpace=wrap;html=1;" vertex="1" parent="WIyWlLk6GJQsqaUBKTNV-1">
          <mxGeometry x="659" y="400" width="120" height="40" as="geometry" />
        </mxCell>
        <mxCell id="ut_9dFhyEK4qxXcFYw3r-21" style="edgeStyle=orthogonalEdgeStyle;rounded=0;orthogonalLoop=1;jettySize=auto;html=1;exitX=0.5;exitY=1;exitDx=0;exitDy=0;entryX=0.5;entryY=0;entryDx=0;entryDy=0;" edge="1" parent="WIyWlLk6GJQsqaUBKTNV-1" source="ut_9dFhyEK4qxXcFYw3r-16" target="ut_9dFhyEK4qxXcFYw3r-19">
          <mxGeometry relative="1" as="geometry" />
        </mxCell>
        <mxCell id="ut_9dFhyEK4qxXcFYw3r-16" value="Response" style="rounded=1;whiteSpace=wrap;html=1;" vertex="1" parent="WIyWlLk6GJQsqaUBKTNV-1">
          <mxGeometry x="659" y="460" width="120" height="30" as="geometry" />
        </mxCell>
        <mxCell id="ut_9dFhyEK4qxXcFYw3r-20" value="Yes" style="edgeStyle=orthogonalEdgeStyle;rounded=0;orthogonalLoop=1;jettySize=auto;html=1;entryX=0.5;entryY=1;entryDx=0;entryDy=0;" edge="1" parent="WIyWlLk6GJQsqaUBKTNV-1" source="ut_9dFhyEK4qxXcFYw3r-19" target="ut_9dFhyEK4qxXcFYw3r-0">
          <mxGeometry relative="1" as="geometry" />
        </mxCell>
        <mxCell id="ut_9dFhyEK4qxXcFYw3r-23" style="edgeStyle=orthogonalEdgeStyle;rounded=0;orthogonalLoop=1;jettySize=auto;html=1;exitX=0.5;exitY=1;exitDx=0;exitDy=0;" edge="1" parent="WIyWlLk6GJQsqaUBKTNV-1" source="ut_9dFhyEK4qxXcFYw3r-19" target="WIyWlLk6GJQsqaUBKTNV-3">
          <mxGeometry relative="1" as="geometry">
            <mxPoint x="719" y="640" as="targetPoint" />
          </mxGeometry>
        </mxCell>
        <mxCell id="ut_9dFhyEK4qxXcFYw3r-24" value="No" style="edgeLabel;html=1;align=center;verticalAlign=middle;resizable=0;points=[];" vertex="1" connectable="0" parent="ut_9dFhyEK4qxXcFYw3r-23">
          <mxGeometry x="-0.126" y="2" relative="1" as="geometry">
            <mxPoint as="offset" />
          </mxGeometry>
        </mxCell>
        <mxCell id="ut_9dFhyEK4qxXcFYw3r-19" value="Function&lt;br&gt;Call" style="rhombus;whiteSpace=wrap;html=1;" vertex="1" parent="WIyWlLk6GJQsqaUBKTNV-1">
          <mxGeometry x="681.5" y="510" width="75" height="70" as="geometry" />
        </mxCell>
        <mxCell id="ut_9dFhyEK4qxXcFYw3r-30" style="edgeStyle=orthogonalEdgeStyle;rounded=0;orthogonalLoop=1;jettySize=auto;html=1;exitX=1;exitY=0.5;exitDx=0;exitDy=0;" edge="1" parent="WIyWlLk6GJQsqaUBKTNV-1" source="ut_9dFhyEK4qxXcFYw3r-27" target="ut_9dFhyEK4qxXcFYw3r-28">
          <mxGeometry relative="1" as="geometry" />
        </mxCell>
        <mxCell id="ut_9dFhyEK4qxXcFYw3r-27" value="Knowledge" style="rounded=1;whiteSpace=wrap;html=1;" vertex="1" parent="WIyWlLk6GJQsqaUBKTNV-1">
          <mxGeometry x="49" y="200" width="81" height="40" as="geometry" />
        </mxCell>
        <mxCell id="ut_9dFhyEK4qxXcFYw3r-31" style="edgeStyle=orthogonalEdgeStyle;rounded=0;orthogonalLoop=1;jettySize=auto;html=1;exitX=1;exitY=0.5;exitDx=0;exitDy=0;entryX=0;entryY=0.5;entryDx=0;entryDy=0;" edge="1" parent="WIyWlLk6GJQsqaUBKTNV-1" source="ut_9dFhyEK4qxXcFYw3r-28" target="ut_9dFhyEK4qxXcFYw3r-29">
          <mxGeometry relative="1" as="geometry" />
        </mxCell>
        <mxCell id="ut_9dFhyEK4qxXcFYw3r-28" value="Processing" style="rounded=1;whiteSpace=wrap;html=1;" vertex="1" parent="WIyWlLk6GJQsqaUBKTNV-1">
          <mxGeometry x="150" y="200" width="91" height="40" as="geometry" />
        </mxCell>
        <mxCell id="ut_9dFhyEK4qxXcFYw3r-32" style="edgeStyle=orthogonalEdgeStyle;rounded=0;orthogonalLoop=1;jettySize=auto;html=1;exitX=1;exitY=0.5;exitDx=0;exitDy=0;entryX=0;entryY=0.5;entryDx=0;entryDy=0;entryPerimeter=0;" edge="1" parent="WIyWlLk6GJQsqaUBKTNV-1" source="ut_9dFhyEK4qxXcFYw3r-29" target="ut_9dFhyEK4qxXcFYw3r-4">
          <mxGeometry relative="1" as="geometry" />
        </mxCell>
        <mxCell id="ut_9dFhyEK4qxXcFYw3r-29" value="Embedding" style="rounded=1;whiteSpace=wrap;html=1;" vertex="1" parent="WIyWlLk6GJQsqaUBKTNV-1">
          <mxGeometry x="260" y="200" width="90" height="40" as="geometry" />
        </mxCell>
      </root>
    </mxGraphModel>
  </diagram>
</mxfile>
